<svg xmlns="http://www.w3.org/2000/svg" width="100" height="100" viewBox="0 0 100 100">
  <g id="icon" transform="translate(-132 -870)">
    <path id="Контур_1230" data-name="Контур 1230" d="M50,0A50,50,0,1,1,0,50,50,50,0,0,1,50,0Z" transform="translate(132 870)" fill="#ecf2ff"/>
    <g id="_003-form" data-name="003-form" transform="translate(159 897)">
      <path id="Контур_4797" data-name="Контур 4797" d="M54.664,46.851a5.767,5.767,0,1,1,0-10.23,5.766,5.766,0,0,0,0,10.23ZM24.412,53.006V28.868A8.857,8.857,0,0,1,33.258,20H27.872A8.872,8.872,0,0,0,19,28.872V53a8.872,8.872,0,0,0,8.872,8.872h5.387A8.857,8.857,0,0,1,24.412,53.006Z" transform="translate(-17.314 -18.226)" fill="#aac5ff"/>
      <path id="Контур_4798" data-name="Контур 4798" d="M34.688,31.051a7.541,7.541,0,1,1,7.541-7.541A7.549,7.549,0,0,1,34.688,31.051Zm0-11.533A3.992,3.992,0,1,0,38.68,23.51,4,4,0,0,0,34.688,19.518ZM20.582,43.649a1.774,1.774,0,0,0-1.774-1.774H10.644a7.1,7.1,0,0,1-7.1-7.1V10.644a7.1,7.1,0,0,1,7.1-7.1H26.973a7.1,7.1,0,0,1,7.1,7.1,1.774,1.774,0,0,0,3.549,0A10.657,10.657,0,0,0,26.972,0H10.644A10.656,10.656,0,0,0,0,10.644V34.779A10.656,10.656,0,0,0,10.644,45.423h8.164A1.774,1.774,0,0,0,20.582,43.649Zm2.928-23.51a1.774,1.774,0,0,0-1.774-1.774H13.041a1.774,1.774,0,1,0,0,3.549h8.694A1.774,1.774,0,0,0,23.51,20.139Zm0,13.574a1.774,1.774,0,0,0-1.774-1.774H13.041a1.774,1.774,0,1,0,0,3.549h8.694A1.774,1.774,0,0,0,23.51,33.712Zm0-6.831a1.774,1.774,0,0,0-1.774-1.774H13.041a1.774,1.774,0,1,0,0,3.549h8.694A1.774,1.774,0,0,0,23.51,26.881Z" fill="#2e71fe"/>
      <path id="Контур_4799" data-name="Контур 4799" d="M159.382,163.89a1.774,1.774,0,0,1-1.774-1.774,6.374,6.374,0,0,0-6.345-6.388h-1.5a6.374,6.374,0,0,0-6.346,6.388,1.774,1.774,0,0,1-3.549,0,9.926,9.926,0,0,1,9.894-9.936h1.5a9.926,9.926,0,0,1,9.894,9.936A1.774,1.774,0,0,1,159.382,163.89Zm-16.59-32.115A1.774,1.774,0,0,0,141.017,130H128.774a1.774,1.774,0,1,0,0,3.549h12.243A1.774,1.774,0,0,0,142.792,131.774Z" transform="translate(-115.733 -118.467)" fill="#fc5b5b"/>
    </g>
  </g>
</svg>
