<svg xmlns="http://www.w3.org/2000/svg" width="100" height="100" viewBox="0 0 100 100">
  <g id="icon" transform="translate(-132 -870)">
    <path id="Контур_1230" data-name="Контур 1230" d="M50,0A50,50,0,1,1,0,50,50,50,0,0,1,50,0Z" transform="translate(132 870)" fill="#c5eac1"/>
    <g id="_002-medal" data-name="002-medal" transform="translate(159 897)">
      <path id="Контур_4794" data-name="Контур 4794" d="M99.435,182.675a14.679,14.679,0,0,1,11.957-14.423,14.675,14.675,0,1,0,0,28.845A14.679,14.679,0,0,1,99.435,182.675Z" transform="translate(-85.485 -152.782)" fill="#8ed687"/>
      <path id="Контур_4795" data-name="Контур 4795" d="M23.19,46.38A16.487,16.487,0,1,1,39.676,29.893,16.505,16.505,0,0,1,23.19,46.38Zm0-29.35A12.863,12.863,0,1,0,36.053,29.893,12.878,12.878,0,0,0,23.19,17.03Zm4.963-9.353,4.634-4.5a1.812,1.812,0,0,0,.549-1.3V1.812A1.812,1.812,0,0,0,30,.824L25.619,5.086,25.6,5.1a3.622,3.622,0,0,1-5.117,0L16.1.7a1.812,1.812,0,0,0-3.241,1.114V1.83a1.812,1.812,0,0,0,.527,1.278l4.53,4.552A7.212,7.212,0,0,0,21.67,9.652a7.272,7.272,0,0,0,1.376.131,7.243,7.243,0,0,0,5.107-2.106Zm7.636,5.386L45.843,3.1A1.812,1.812,0,1,0,43.293.525L33.238,10.489a1.812,1.812,0,0,0,2.551,2.574Zm-22.635-.012a1.812,1.812,0,0,0-.012-2.562L3.087.525A1.812,1.812,0,0,0,.536,3.1l10.055,9.964a1.812,1.812,0,0,0,2.562-.012Z" transform="translate(0 0)" fill="#016b43"/>
      <path id="Контур_4796" data-name="Контур 4796" d="M202.339,255.406a1.812,1.812,0,0,1-1.812-1.812V242.842l-1.785,1.071a1.812,1.812,0,1,1-1.864-3.107l2.2-1.318a3.352,3.352,0,0,1,5.076,2.874v11.233A1.812,1.812,0,0,1,202.339,255.406Z" transform="translate(-178.243 -217.36)" fill="#333"/>
    </g>
  </g>
</svg>
