<svg xmlns="http://www.w3.org/2000/svg" width="165.507" height="12.928" viewBox="0 0 165.507 12.928">
  <g id="review-stars" transform="translate(-843 -4950)">
    <path id="Icon_awesome-star" data-name="Icon awesome-star" d="M7.47.449,5.822,3.791l-3.688.538a.808.808,0,0,0-.447,1.378l2.669,2.6-.631,3.673a.807.807,0,0,0,1.171.851l3.3-1.734,3.3,1.734a.808.808,0,0,0,1.171-.851l-.631-3.673,2.669-2.6a.808.808,0,0,0-.447-1.378l-3.688-.538L8.919.449a.809.809,0,0,0-1.449,0Z" transform="translate(841.559 4950.001)" fill="#f2b827"/>
    <path id="Icon_awesome-star-2" data-name="Icon awesome-star" d="M7.47.449,5.822,3.791l-3.688.538a.808.808,0,0,0-.447,1.378l2.669,2.6-.631,3.673a.807.807,0,0,0,1.171.851l3.3-1.734,3.3,1.734a.808.808,0,0,0,1.171-.851l-.631-3.673,2.669-2.6a.808.808,0,0,0-.447-1.378l-3.688-.538L8.919.449a.809.809,0,0,0-1.449,0Z" transform="translate(879.559 4950.001)" fill="#f2b827"/>
    <path id="Icon_awesome-star-3" data-name="Icon awesome-star" d="M7.47.449,5.822,3.791l-3.688.538a.808.808,0,0,0-.447,1.378l2.669,2.6-.631,3.673a.807.807,0,0,0,1.171.851l3.3-1.734,3.3,1.734a.808.808,0,0,0,1.171-.851l-.631-3.673,2.669-2.6a.808.808,0,0,0-.447-1.378l-3.688-.538L8.919.449a.809.809,0,0,0-1.449,0Z" transform="translate(917.559 4950.001)" fill="#f2b827"/>
    <path id="Icon_awesome-star-4" data-name="Icon awesome-star" d="M7.47.449,5.822,3.791l-3.688.538a.808.808,0,0,0-.447,1.378l2.669,2.6-.631,3.673a.807.807,0,0,0,1.171.851l3.3-1.734,3.3,1.734a.808.808,0,0,0,1.171-.851l-.631-3.673,2.669-2.6a.808.808,0,0,0-.447-1.378l-3.688-.538L8.919.449a.809.809,0,0,0-1.449,0Z" transform="translate(955.559 4950.001)" fill="#f2b827"/>
    <path id="Icon_awesome-star-5" data-name="Icon awesome-star" d="M7.47.449,5.822,3.791l-3.688.538a.808.808,0,0,0-.447,1.378l2.669,2.6-.631,3.673a.807.807,0,0,0,1.171.851l3.3-1.734,3.3,1.734a.808.808,0,0,0,1.171-.851l-.631-3.673,2.669-2.6a.808.808,0,0,0-.447-1.378l-3.688-.538L8.919.449a.809.809,0,0,0-1.449,0Z" transform="translate(993.559 4950.001)" fill="#f2b827"/>
  </g>
</svg>
