<svg xmlns="http://www.w3.org/2000/svg" width="100" height="100" viewBox="0 0 100 100">
  <g id="icon" transform="translate(-132 -870)">
    <path id="Контур_1230" data-name="Контур 1230" d="M50,0A50,50,0,1,1,0,50,50,50,0,0,1,50,0Z" transform="translate(132 870)" fill="#c5eac1"/>
    <g id="_005-social-network" data-name="005-social-network" transform="translate(159 897)">
      <path id="Контур_4804" data-name="Контур 4804" d="M23.454,10.867a5.433,5.433,0,1,1,5.433-5.433A5.44,5.44,0,0,1,23.454,10.867Zm0-7.245a1.811,1.811,0,1,0,1.811,1.811A1.813,1.813,0,0,0,23.454,3.622Zm8.06,16.662a7.487,7.487,0,0,0-7.53-7.426H22.925a7.487,7.487,0,0,0-7.53,7.426,1.811,1.811,0,1,0,3.622,0,3.861,3.861,0,0,1,3.908-3.8h1.059a3.861,3.861,0,0,1,3.908,3.8,1.811,1.811,0,1,0,3.622,0ZM8.06,35.136A5.433,5.433,0,1,1,13.493,29.7,5.44,5.44,0,0,1,8.06,35.136Zm0-7.245A1.811,1.811,0,1,0,9.871,29.7,1.813,1.813,0,0,0,8.06,27.891Zm8.06,16.662a7.487,7.487,0,0,0-7.53-7.426H7.53A7.487,7.487,0,0,0,0,44.554a1.811,1.811,0,0,0,3.622,0,3.861,3.861,0,0,1,3.908-3.8H8.589a3.861,3.861,0,0,1,3.908,3.8,1.811,1.811,0,0,0,3.622,0Zm22.186-9.418A5.433,5.433,0,1,1,43.739,29.7,5.44,5.44,0,0,1,38.305,35.136Zm0-7.245A1.811,1.811,0,1,0,40.116,29.7,1.813,1.813,0,0,0,38.305,27.891Zm8.06,16.662a7.487,7.487,0,0,0-7.53-7.426H37.776a7.487,7.487,0,0,0-7.53,7.426,1.811,1.811,0,0,0,3.622,0,3.861,3.861,0,0,1,3.908-3.8h1.059a3.861,3.861,0,0,1,3.908,3.8,1.811,1.811,0,0,0,3.622,0Z" fill="#016b43"/>
      <path id="Контур_4805" data-name="Контур 4805" d="M91.825,99.458a1.812,1.812,0,0,1-1.76-1.388,15.086,15.086,0,0,0-5.888-8.726,1.811,1.811,0,1,1,2.11-2.944,18.709,18.709,0,0,1,7.3,10.823,1.813,1.813,0,0,1-1.762,2.235ZM60.749,98.07A15.1,15.1,0,0,1,66.556,89.4a1.811,1.811,0,1,0-2.13-2.93,18.72,18.72,0,0,0-7.2,10.751,1.811,1.811,0,1,0,3.522.847Zm20.223,19.5a1.811,1.811,0,0,0-1.077-3.459,14.963,14.963,0,0,1-4.487.736,15.138,15.138,0,0,1-4.73-.814,1.811,1.811,0,0,0-1.136,3.44,18.747,18.747,0,0,0,5.865,1A18.52,18.52,0,0,0,80.972,117.574Z" transform="translate(-51.999 -78.267)" fill="#333"/>
    </g>
  </g>
</svg>
