<svg xmlns="http://www.w3.org/2000/svg" width="70" height="70" viewBox="0 0 70 70">
  <g id="trus-ic-3" transform="translate(-483 -1792)">
    <g id="Сгруппировать_2431" data-name="Сгруппировать 2431" transform="translate(143.181 -5.819)">
      <circle id="Эллипс_37" data-name="Эллипс 37" cx="35" cy="35" r="35" transform="translate(339.819 1797.819)" fill="#c5eac1"/>
    </g>
    <g id="trailer" transform="translate(499 1718.82)">
      <path id="Контур_13980" data-name="Контур 13980" d="M37.023,113.034h-.659V100.091a.911.911,0,0,0-.911-.911H12.086a.911.911,0,0,0-.911.911v12.865H9.949V100.275a.911.911,0,0,0-.911-.911h-2.4A3.965,3.965,0,0,0,2.73,102.69H.911A.911.911,0,0,0,0,103.6v12.494A.911.911,0,0,0,.911,117H2.165a2.953,2.953,0,0,0,5.618,0h4.2a2.952,2.952,0,0,0,5.415.476,2.952,2.952,0,1,0,4.8-3.365h2.4a2.952,2.952,0,1,0,4.8,3.365,2.952,2.952,0,1,0,4.8-3.365h.368a.911.911,0,0,0,.895.739h1.57a.911.911,0,0,0,0-1.822ZM34.542,101v8.628H13V101Zm-20.88,15.093a1.132,1.132,0,1,1,1.132,1.132A1.133,1.133,0,0,1,13.662,116.094Zm5.213,0a1.132,1.132,0,1,1,1.132,1.132A1.133,1.133,0,0,1,18.875,116.094Zm-6.723-1.317a2.931,2.931,0,0,0-.166.406H9.949v-.406ZM6.637,101.186H8.128v1.5H4.6A2.141,2.141,0,0,1,6.637,101.186Zm-4.815,6.025h3v1.09h-3Zm0,2.911H5.735a.911.911,0,0,0,.911-.911V106.3a.911.911,0,0,0-.911-.911H1.822v-.879H8.128v10.672H7.784a2.953,2.953,0,0,0-5.618,0H1.822Zm4.285,5.971a1.132,1.132,0,1,1-1.132-1.132A1.133,1.133,0,0,1,6.106,116.094Zm27.025,0A1.132,1.132,0,1,1,32,114.962,1.133,1.133,0,0,1,33.131,116.094Zm-6.345,1.132a1.132,1.132,0,1,1,1.132-1.132A1.133,1.133,0,0,1,26.786,117.226Zm2.191-3.11h.83a2.966,2.966,0,0,0-.415.591A2.965,2.965,0,0,0,28.978,114.116ZM13,112.295v-.844H34.542v.844Z" transform="translate(0 0)" fill="#211915"/>
    </g>
  </g>
</svg>
