<svg xmlns="http://www.w3.org/2000/svg" width="70" height="70" viewBox="0 0 70 70">
  <g id="Сгруппировать_11835" data-name="Сгруппировать 11835" transform="translate(-191 -1919)">
    <g id="icon" transform="translate(-148.819 121.181)">
      <circle id="Эллипс_37" data-name="Эллипс 37" cx="35" cy="35" r="35" transform="translate(339.819 1797.819)" fill="#c5eac1"/>
    </g>
    <path id="Icon_material-high-quality" data-name="Icon material-high-quality" d="M28.5,6H7.5a3,3,0,0,0-3,3V27a3,3,0,0,0,3,3h21a3.009,3.009,0,0,0,3-3V9A3.009,3.009,0,0,0,28.5,6Zm-12,16.5H14.25v-3h-3v3H9v-9h2.25v3.75h3V13.5H16.5ZM27,21a1.5,1.5,0,0,1-1.5,1.5H24.375v2.25h-2.25V22.5H21A1.5,1.5,0,0,1,19.5,21V15A1.5,1.5,0,0,1,21,13.5h4.5A1.5,1.5,0,0,1,27,15Zm-5.25-.75h3v-4.5h-3Z" transform="translate(208.2 1936)"/>
  </g>
</svg>
