<svg xmlns="http://www.w3.org/2000/svg" width="70" height="70" viewBox="0 0 70 70">
  <g id="trus-ic-1" transform="translate(-483 -1422)">
    <g id="icon" transform="translate(143.181 -375.819)">
      <circle id="Эллипс_37" data-name="Эллипс 37" cx="35" cy="35" r="35" transform="translate(339.819 1797.819)" fill="#c5eac1"/>
    </g>
    <path id="XMLID_27_" d="M0,3.092A3.1,3.1,0,0,1,3.092,0H29.2A3.1,3.1,0,0,1,32.29,3.092V5.153a1.031,1.031,0,1,1-2.061,0V3.092A1.032,1.032,0,0,0,29.2,2.061H3.092a1.031,1.031,0,1,0,0,2.061H25.764a1.031,1.031,0,0,1,0,2.061H3.092A3.1,3.1,0,0,1,0,3.092ZM33.665,9.275V13.4a1.031,1.031,0,0,1-1.031,1.031H32.29V32.634a1.031,1.031,0,0,1-1.031,1.031H1.031A1.031,1.031,0,0,1,0,32.634V14.084a1.031,1.031,0,0,1,1.031-1.031H9.275a1.031,1.031,0,0,1,.729.3l6.569,6.568h8.161v-5.5H24.39A1.031,1.031,0,0,1,23.359,13.4V9.275A1.031,1.031,0,0,1,24.39,8.244h8.244A1.031,1.031,0,0,1,33.665,9.275Zm-8.931,12.71H16.145a1.031,1.031,0,0,1-.729-.3L8.848,15.115H2.061V31.6H24.733Zm5.5-7.557H26.794V31.6h3.435ZM31.6,10.305H25.42v2.061H31.6Z" transform="translate(501 1440)" fill="#333"/>
  </g>
</svg>
