<svg xmlns="http://www.w3.org/2000/svg" width="70" height="70" viewBox="0 0 70 70">
  <g id="trus-ic-5" transform="translate(-339.819 -1797.819)">
    <circle id="Эллипс_37" data-name="Эллипс 37" cx="35" cy="35" r="35" transform="translate(339.819 1797.819)" fill="#c5eac1"/>
    <g id="pipes" transform="translate(346.819 1804.819)">
      <g id="Сгруппировать_11827" data-name="Сгруппировать 11827" transform="translate(11 11)">
        <path id="Контур_13981" data-name="Контур 13981" d="M43.884,21.532H36.636s.4-1.954-1.428-2.115H29.592v-5.56h3a1.429,1.429,0,1,0,0-2.857H23.73a1.429,1.429,0,1,0,0,2.857h3V19.41H21.112c-.525.07-1.541.154-1.428,2.115H12.429A1.426,1.426,0,0,0,11,22.953V31.1a1.426,1.426,0,0,0,1.429,1.429h7.255c0,.749-.112,2.031,1.428,2.115H22.6V43.87A1.426,1.426,0,0,0,24.025,45.3h8.27a1.426,1.426,0,0,0,1.428-1.428V34.654h1.485c1.527-.14,1.471-1.267,1.429-2.115h7.248a1.426,1.426,0,0,0,1.429-1.429V22.96a1.426,1.426,0,0,0-1.429-1.428Zm-24.2,8.144H13.864V24.389h5.819ZM30.866,42.455H25.453v-7.8h5.413ZM33.772,31.79H22.54V22.274H33.772Zm8.683-2.115H36.636V24.389h5.819Z" transform="translate(-11 -11)"/>
      </g>
    </g>
  </g>
</svg>
