<svg xmlns="http://www.w3.org/2000/svg" width="100" height="100"><path data-name="Контур 1230" d="M50 0A50 50 0 110 50 50 50 0 0150 0z" fill="rgba(65,184,52,0.3)"/><g data-name="003-form"><path data-name="Контур 4797" d="M64.35 55.625a5.767 5.767 0 110-10.23 5.766 5.766 0 000 10.23zM34.098 61.78V37.642a8.857 8.857 0 018.846-8.868h-5.386a8.872 8.872 0 00-8.872 8.872v24.128a8.872 8.872 0 008.872 8.872h5.387a8.857 8.857 0 01-8.847-8.866z" fill="rgba(65,184,52,0.41)"/><path data-name="Контур 4798" d="M61.688 58.051a7.541 7.541 0 117.541-7.541 7.549 7.549 0 01-7.541 7.541zm0-11.533a3.992 3.992 0 103.992 3.992 4 4 0 00-3.992-3.992zM47.582 70.649a1.774 1.774 0 00-1.774-1.774h-8.164a7.1 7.1 0 01-7.1-7.1V37.644a7.1 7.1 0 017.1-7.1h16.329a7.1 7.1 0 017.1 7.1 1.774 1.774 0 003.549 0A10.657 10.657 0 0053.972 27H37.644A10.656 10.656 0 0027 37.644v24.135a10.656 10.656 0 0010.644 10.644h8.164a1.774 1.774 0 001.774-1.774zm2.928-23.51a1.774 1.774 0 00-1.774-1.774h-8.695a1.774 1.774 0 100 3.549h8.694a1.774 1.774 0 001.775-1.775zm0 13.574a1.774 1.774 0 00-1.774-1.774h-8.695a1.774 1.774 0 100 3.549h8.694a1.774 1.774 0 001.775-1.776zm0-6.831a1.774 1.774 0 00-1.774-1.774h-8.695a1.774 1.774 0 100 3.549h8.694a1.774 1.774 0 001.775-1.776z" fill="#016b43"/><path data-name="Контур 4799" d="M70.649 72.423a1.774 1.774 0 01-1.774-1.774 6.374 6.374 0 00-6.345-6.388h-1.5a6.374 6.374 0 00-6.346 6.388 1.774 1.774 0 01-3.549 0 9.926 9.926 0 019.894-9.936h1.5a9.926 9.926 0 019.894 9.936 1.774 1.774 0 01-1.774 1.774zm-16.59-32.115a1.774 1.774 0 00-1.775-1.775H40.041a1.774 1.774 0 100 3.549h12.243a1.774 1.774 0 001.775-1.775z" fill="#333"/></g></svg>