<svg xmlns="http://www.w3.org/2000/svg" width="100" height="100"><path data-name="Контур 1230" d="M50 0A50 50 0 110 50 50 50 0 0150 0z" fill="#c5eac1"/><g data-name="002-medal"><path data-name="Контур 4794" d="M40.95 56.893A14.679 14.679 0 0152.907 42.47a14.675 14.675 0 100 28.845A14.679 14.679 0 0140.95 56.893z" fill="#8ed687"/><path data-name="Контур 4795" d="M50.19 73.38a16.487 16.487 0 1116.486-16.487A16.505 16.505 0 0150.19 73.38zm0-29.35a12.863 12.863 0 1012.863 12.863A12.878 12.878 0 0050.19 44.03zm4.963-9.353l4.634-4.5a1.812 1.812 0 00.549-1.3v-.065A1.812 1.812 0 0057 27.824l-4.381 4.262-.019.014a3.622 3.622 0 01-5.117 0L43.1 27.7a1.812 1.812 0 00-3.241 1.114v.016a1.812 1.812 0 00.527 1.278l4.53 4.552a7.212 7.212 0 003.754 1.992 7.272 7.272 0 001.376.131 7.243 7.243 0 005.107-2.106zm7.636 5.386L72.843 30.1a1.812 1.812 0 10-2.55-2.575l-10.055 9.964a1.812 1.812 0 002.551 2.574zm-22.635-.012a1.812 1.812 0 00-.012-2.562l-10.055-9.964a1.812 1.812 0 00-2.551 2.575l10.055 9.964a1.812 1.812 0 002.562-.012z" fill="#016b43"/><path data-name="Контур 4796" d="M51.096 65.046a1.812 1.812 0 01-1.812-1.812V52.482l-1.785 1.071a1.812 1.812 0 11-1.864-3.107l2.2-1.318a3.352 3.352 0 015.076 2.874v11.233a1.812 1.812 0 01-1.815 1.811z" fill="#333"/></g></svg>