<svg xmlns="http://www.w3.org/2000/svg" width="165.507" height="12.928"><path data-name="Icon awesome-star" d="M6.029.45L4.381 3.792.693 4.33a.808.808 0 00-.447 1.378l2.669 2.6-.631 3.673a.807.807 0 001.171.851l3.3-1.734 3.3 1.734a.808.808 0 001.171-.851l-.631-3.673 2.669-2.6a.808.808 0 00-.447-1.378l-3.688-.538L7.478.45a.809.809 0 00-1.449 0zm38 0l-1.648 3.342-3.688.538a.808.808 0 00-.447 1.378l2.669 2.6-.631 3.673a.807.807 0 001.171.851l3.3-1.734 3.3 1.734a.808.808 0 001.171-.851l-.631-3.673 2.669-2.6a.808.808 0 00-.447-1.378l-3.688-.538L45.478.45a.809.809 0 00-1.449 0zm38 0l-1.648 3.342-3.688.538a.808.808 0 00-.447 1.378l2.669 2.6-.631 3.673a.807.807 0 001.171.851l3.3-1.734 3.3 1.734a.808.808 0 001.171-.851l-.631-3.673 2.669-2.6a.808.808 0 00-.447-1.378l-3.688-.538L83.478.45a.809.809 0 00-1.449 0zm38 0l-1.648 3.342-3.688.538a.808.808 0 00-.447 1.378l2.669 2.6-.631 3.673a.807.807 0 001.171.851l3.3-1.734 3.3 1.734a.808.808 0 001.171-.851l-.631-3.673 2.669-2.6a.808.808 0 00-.447-1.378l-3.688-.538L121.478.45a.809.809 0 00-1.449 0zm38 0l-1.648 3.342-3.688.538a.808.808 0 00-.447 1.378l2.669 2.6-.631 3.673a.807.807 0 001.171.851l3.3-1.734 3.3 1.734a.808.808 0 001.171-.851l-.631-3.673 2.669-2.6a.808.808 0 00-.447-1.378l-3.688-.538L159.478.45a.809.809 0 00-1.449 0z" fill="#f2b827"/></svg>