<svg xmlns="http://www.w3.org/2000/svg" width="100" height="100"><path data-name="Контур 1230" d="M50 0A50 50 0 110 50 50 50 0 0150 0z" fill="#c5eac1"/><g data-name="005-social-network"><path data-name="Контур 4804" d="M50.454 37.867a5.433 5.433 0 115.433-5.433 5.44 5.44 0 01-5.433 5.433zm0-7.245a1.811 1.811 0 101.811 1.811 1.813 1.813 0 00-1.811-1.811zm8.06 16.662a7.487 7.487 0 00-7.53-7.426h-1.059a7.487 7.487 0 00-7.53 7.426 1.811 1.811 0 103.622 0 3.861 3.861 0 013.908-3.8h1.059a3.861 3.861 0 013.908 3.8 1.811 1.811 0 103.622 0zM35.06 62.136a5.433 5.433 0 115.433-5.436 5.44 5.44 0 01-5.433 5.436zm0-7.245a1.811 1.811 0 101.811 1.809 1.813 1.813 0 00-1.811-1.809zm8.06 16.662a7.487 7.487 0 00-7.53-7.426h-1.06A7.487 7.487 0 0027 71.554a1.811 1.811 0 003.622 0 3.861 3.861 0 013.908-3.8h1.059a3.861 3.861 0 013.908 3.8 1.811 1.811 0 003.622 0zm22.186-9.418a5.433 5.433 0 115.433-5.435 5.44 5.44 0 01-5.434 5.436zm0-7.245a1.811 1.811 0 101.81 1.81 1.813 1.813 0 00-1.811-1.809zm8.06 16.662a7.487 7.487 0 00-7.53-7.426h-1.06a7.487 7.487 0 00-7.53 7.426 1.811 1.811 0 003.622 0 3.861 3.861 0 013.908-3.8h1.059a3.861 3.861 0 013.908 3.8 1.811 1.811 0 003.622 0z" fill="#016b43"/><path data-name="Контур 4805" d="M66.826 48.191a1.812 1.812 0 01-1.76-1.388 15.086 15.086 0 00-5.888-8.726 1.811 1.811 0 112.11-2.944 18.709 18.709 0 017.3 10.823 1.813 1.813 0 01-1.762 2.235zM35.75 46.803a15.1 15.1 0 015.807-8.67 1.811 1.811 0 10-2.13-2.93 18.72 18.72 0 00-7.2 10.751 1.811 1.811 0 103.522.847zm20.223 19.5a1.811 1.811 0 00-1.077-3.459 14.963 14.963 0 01-4.487.736 15.138 15.138 0 01-4.73-.814 1.811 1.811 0 00-1.136 3.44 18.747 18.747 0 005.865 1 18.52 18.52 0 005.565-.899z" fill="#333"/></g></svg>