<svg xmlns="http://www.w3.org/2000/svg" width="70" height="70"><g data-name="Сгруппировать 11835"><circle data-name="Эллипс 37" cx="35" cy="35" r="35" fill="#c5eac1"/><path data-name="Icon material-high-quality" d="M45.7 23h-21a3 3 0 00-3 3v18a3 3 0 003 3h21a3.009 3.009 0 003-3V26a3.009 3.009 0 00-3-3zm-12 16.5h-2.25v-3h-3v3H26.2v-9h2.25v3.75h3V30.5h2.25zM44.2 38a1.5 1.5 0 01-1.5 1.5h-1.125v2.25h-2.25V39.5H38.2a1.5 1.5 0 01-1.5-1.5v-6a1.5 1.5 0 011.5-1.5h4.5a1.5 1.5 0 011.5 1.5zm-5.25-.75h3v-4.5h-3z"/></g></svg>