<svg xmlns="http://www.w3.org/2000/svg" width="70" height="70"><circle data-name="Эллипс 37" cx="35" cy="35" r="35" fill="#c5eac1"/><path d="M18 21.092A3.1 3.1 0 0121.092 18H47.2a3.1 3.1 0 013.09 3.092v2.061a1.031 1.031 0 11-2.061 0v-2.061a1.032 1.032 0 00-1.029-1.031H21.092a1.031 1.031 0 100 2.061h22.672a1.031 1.031 0 010 2.061H21.092A3.1 3.1 0 0118 21.092zm33.665 6.183V31.4a1.031 1.031 0 01-1.031 1.031h-.344v18.203a1.031 1.031 0 01-1.031 1.031H19.031A1.031 1.031 0 0118 50.634v-18.55a1.031 1.031 0 011.031-1.031h8.244a1.031 1.031 0 01.729.3l6.569 6.568h8.161v-5.5h-.344a1.031 1.031 0 01-1.031-1.021v-4.125a1.031 1.031 0 011.031-1.031h8.244a1.031 1.031 0 011.031 1.031zm-8.931 12.71h-8.589a1.031 1.031 0 01-.729-.3l-6.568-6.57h-6.787V49.6h22.672zm5.5-7.557h-3.44V49.6h3.435zm1.366-4.123h-6.18v2.061h6.18z" fill="#333"/></svg>