<svg xmlns="http://www.w3.org/2000/svg" width="70" height="70"><g transform="translate(-339.819 -1797.819)"><circle data-name="Эллипс 37" cx="35" cy="35" r="35" transform="translate(339.819 1797.819)" fill="#c5eac1"/><g data-name="Сгруппировать 11827"><path data-name="Контур 13981" d="M390.703 1826.351h-7.248s.4-1.954-1.428-2.115h-5.616v-5.56h3a1.429 1.429 0 100-2.857h-8.862a1.429 1.429 0 100 2.857h3v5.553h-5.618c-.525.07-1.541.154-1.428 2.115h-7.255a1.426 1.426 0 00-1.429 1.428v8.147a1.426 1.426 0 001.429 1.429h7.255c0 .749-.112 2.031 1.428 2.115h1.488v9.226a1.426 1.426 0 001.425 1.43h8.27a1.426 1.426 0 001.428-1.428v-9.218h1.485c1.527-.14 1.471-1.267 1.429-2.115h7.248a1.426 1.426 0 001.429-1.429v-8.15a1.426 1.426 0 00-1.429-1.428zm-24.2 8.144h-5.82v-5.287h5.819zm11.182 12.779h-5.413v-7.8h5.413zm2.906-10.665h-11.232v-9.516h11.232zm8.683-2.115h-5.819v-5.286h5.819z"/></g></g></svg>