<svg xmlns="http://www.w3.org/2000/svg" width="70" height="70"><g data-name="Сгруппировать 2431"><circle data-name="Эллипс 37" cx="35" cy="35" r="35" fill="#c5eac1"/></g><path data-name="Контур 13980" d="M53.023 39.854h-.659V26.911a.911.911 0 00-.911-.911H28.086a.911.911 0 00-.911.911v12.865h-1.226V27.095a.911.911 0 00-.911-.911h-2.4a3.965 3.965 0 00-3.908 3.326h-1.819a.911.911 0 00-.911.91v12.494a.911.911 0 00.911.906h1.254a2.953 2.953 0 005.618 0h4.2a2.952 2.952 0 005.415.476 2.952 2.952 0 104.8-3.365h2.4a2.952 2.952 0 104.8 3.365 2.952 2.952 0 104.8-3.365h.368a.911.911 0 00.895.739h1.57a.911.911 0 000-1.822zM50.542 27.82v8.628H29V27.82zm-20.88 15.093a1.132 1.132 0 111.132 1.132 1.133 1.133 0 01-1.132-1.131zm5.213 0a1.132 1.132 0 111.132 1.132 1.133 1.133 0 01-1.132-1.131zm-6.723-1.317a2.931 2.931 0 00-.166.406h-2.037v-.406zm-5.515-13.59h1.491v1.5H20.6a2.141 2.141 0 012.037-1.5zm-4.815 6.025h3v1.09h-3zm0 2.911h3.913a.911.911 0 00.911-.911V33.12a.911.911 0 00-.911-.911h-3.913v-.879h6.306v10.672h-.344a2.953 2.953 0 00-5.618 0h-.344zm4.285 5.971a1.132 1.132 0 11-1.132-1.132 1.133 1.133 0 011.131 1.133zm27.025 0A1.132 1.132 0 1148 41.782a1.133 1.133 0 011.131 1.132zm-6.345 1.132a1.132 1.132 0 111.132-1.132 1.133 1.133 0 01-1.133 1.133zm2.191-3.11h.83a2.966 2.966 0 00-.415.591 2.965 2.965 0 00-.415-.59zM29 39.115v-.844h21.542v.844z" fill="#211915"/></svg>